# MagicaVoxel @ Ephtracy

# group
o 

# material
mtllib chr_knight-5.mtl
usemtl palette

# normals
vn -1 0 0
vn 1 0 0
vn 0 0 1
vn 0 0 -1
vn 0 -1 0
vn 0 1 0

# texcoords
vt 0.0332031 0.5
vt 0.205078 0.5
vt 0.994141 0.5

# verts
v -0.2 0 0.1
v -0.2 0 -0.2
v -0.2 0.1 0.1
v -0.2 0.1 0
v -0.2 0.2 0.1
v -0.2 0.2 0
v -0.2 0.3 0.2
v -0.2 0.3 0.1
v -0.2 0.3 -0.2
v -0.2 0.4 0.2
v -0.2 0.4 -0.2
v -0.1 0.2 0.2
v -0.1 0.2 0.1
v -0.1 0.3 0.2
v -0.1 0.3 0.1
v 0.1 0 0.1
v 0.1 0 -0.2
v 0.1 0.1 0.1
v 0.1 0.1 0
v 0.1 0.2 0.2
v 0.1 0.2 0.1
v 0.1 0.2 0
v 0.1 0.3 0.1
v 0.1 0.3 -0.2
v 0.1 0.4 0.2
v 0.1 0.4 -0.2
v -0.2 0.3 0.2
v -0.2 0.4 0.2
v -0.1 0.2 0.2
v -0.1 0.3 0.2
v 0.1 0.2 0.2
v 0.1 0.4 0.2
v -0.2 0 0.1
v -0.2 0.1 0.1
v -0.2 0.2 0.1
v -0.2 0.3 0.1
v -0.1 0.1 0.1
v -0.1 0.2 0.1
v -0.1 0.3 0.1
v 0 0.1 0.1
v 0 0.2 0.1
v 0.1 0 0.1
v 0.1 0.1 0.1
v 0.1 0.2 0.1
v -0.2 0 -0.2
v -0.2 0.3 -0.2
v -0.2 0.4 -0.2
v 0.1 0 -0.2
v 0.1 0.3 -0.2
v 0.1 0.4 -0.2
v -0.2 0 0.1
v 0.1 0 0.1
v -0.2 0 -0.2
v 0.1 0 -0.2
v -0.1 0.2 0.2
v 0.1 0.2 0.2
v -0.1 0.2 0.1
v 0 0.2 0.1
v 0.1 0.2 0.1
v -0.2 0.3 0.2
v -0.1 0.3 0.2
v -0.2 0.3 0.1
v -0.1 0.3 0.1
v -0.2 0.4 0.2
v 0.1 0.4 0.2
v -0.2 0.4 -0.2
v 0.1 0.4 -0.2

# faces
f 3/1/1 2/1/1 1/1/1
f 4/1/1 2/1/1 3/1/1
f 5/3/1 4/3/1 3/3/1
f 6/1/1 2/1/1 4/1/1
f 6/3/1 4/3/1 5/3/1
f 8/1/1 6/1/1 5/1/1
f 9/1/1 2/1/1 6/1/1
f 9/1/1 6/1/1 8/1/1
f 10/2/1 8/2/1 7/2/1
f 10/2/1 9/2/1 8/2/1
f 11/2/1 9/2/1 10/2/1
f 14/2/1 13/2/1 12/2/1
f 15/2/1 13/2/1 14/2/1
f 16/1/2 17/1/2 18/1/2
f 18/1/2 17/1/2 19/1/2
f 18/3/2 19/3/2 21/3/2
f 19/1/2 17/1/2 22/1/2
f 21/3/2 19/3/2 22/3/2
f 20/2/2 21/2/2 23/2/2
f 21/1/2 22/1/2 23/1/2
f 22/1/2 17/1/2 24/1/2
f 23/1/2 22/1/2 24/1/2
f 20/2/2 23/2/2 25/2/2
f 23/2/2 24/2/2 25/2/2
f 25/2/2 24/2/2 26/2/2
f 30/2/3 28/2/3 27/2/3
f 31/2/3 30/2/3 29/2/3
f 32/2/3 28/2/3 30/2/3
f 32/2/3 30/2/3 31/2/3
f 37/1/3 34/1/3 33/1/3
f 37/3/3 35/3/3 34/3/3
f 38/1/3 36/1/3 35/1/3
f 38/3/3 35/3/3 37/3/3
f 39/1/3 36/1/3 38/1/3
f 40/1/3 37/1/3 33/1/3
f 40/1/3 38/1/3 37/1/3
f 41/1/3 38/1/3 40/1/3
f 42/1/3 40/1/3 33/1/3
f 43/3/3 41/3/3 40/3/3
f 43/1/3 40/1/3 42/1/3
f 44/3/3 41/3/3 43/3/3
f 45/1/4 46/1/4 48/1/4
f 46/2/4 47/2/4 49/2/4
f 48/1/4 46/1/4 49/1/4
f 49/2/4 47/2/4 50/2/4
f 53/1/5 52/1/5 51/1/5
f 54/1/5 52/1/5 53/1/5
f 57/2/5 56/2/5 55/2/5
f 58/2/5 56/2/5 57/2/5
f 59/2/5 56/2/5 58/2/5
f 62/2/5 61/2/5 60/2/5
f 63/2/5 61/2/5 62/2/5
f 64/2/6 65/2/6 66/2/6
f 66/2/6 65/2/6 67/2/6
